# xmcd
#
# Track frame offsets:
#	183
#	12483
#	26693
#	37283
#	50860
#	60818
#	70818
#	83850
#	97428
#	107293
#	118368
#	128868
#
# Disc length: 1862 seconds
#
# Revision: 0
# Processed by: cddbd v1.4PL0 Copyright (c) Steve Scherf et al.
# Submitted via: audiograbber 1.81.01
#
DISCID=ad07440c
DTITLE=Various Artist - Country World [CD3]
DYEAR=1900
DGENRE=Country
TTITLE0=Johnny Cash - Ring Of Fire
TTITLE1=Roger Miller - Green Green Grass Of Home
TTITLE2=Rusty Draper and Lola Dee - Davy Crockett
TTITLE3=Jerry Lee Lewis - You Win Again
TTITLE4=Dave Dudley - Six Days On The Road
TTITLE5=Rusty Draper - Jealous Heart
TTITLE6=Hank Williams Sr. - Jambalaya (On The Bayou)
TTITLE7=Tom T. Hall - A Week In A Country Jail
TTITLE8=George Jones - I Walk The Line
TTITLE9=Roger Miller - King Of The Road
TTITLE10=Leroy Van Dyke - Walk On By
TTITLE11=Nils Tuxen - Hello Mary Lou
EXTD=
EXTT0=
EXTT1=
EXTT2=
EXTT3=
EXTT4=
EXTT5=
EXTT6=
EXTT7=
EXTT8=
EXTT9=
EXTT10=
EXTT11=
PLAYORDER=
